<svg width="51" height="50" fill="none" xmlns="http://www.w3.org/2000/svg"><g fill="#262626"><path d="M28.601 27.25h.466a1.536 1.536 0 0 0-1.296-1.236v-2.88c.341.081.677.183 1.005.306v-.305c0-.639-.272-.738-.79-1.156l-2.693-1.767-2.694 1.77c-.47.341-.789.518-.789 1.157v.305a8.826 8.826 0 0 1 1.004-.309v2.888a1.537 1.537 0 0 0-1.296 1.236h.36a1.793 1.793 0 0 0-1.791 1.792h.93l-.172 3.127v.056c.99.7 2.615 1.162 4.42 1.162 1.85 0 3.486-.476 4.476-1.205l-.17-3.151h.815a1.794 1.794 0 0 0-1.785-1.79Zm-4.347-1.263v-1.935a.136.136 0 0 1 .135-.133h1.805a.133.133 0 0 1 .133.133v1.935h-2.073Z"/><path d="M25.293 0a25.295 25.295 0 0 0-5.43 50l.422-7.62a17.92 17.92 0 0 0 10.021 0l.42 7.62a25.295 25.295 0 0 0-5.433-50Zm5.014 42.376-.286-5.201a8.47 8.47 0 0 1-3.447 1.133l-.763.09a4.67 4.67 0 0 1-1.083 0l-.758-.088a8.3 8.3 0 0 1-3.397-1.12l-.288 5.187a17.797 17.797 0 0 1-12.78-17.176C7.56 15.563 15.4 7.653 25.04 7.516a17.79 17.79 0 0 1 5.267 34.858v.002Z"/></g></svg>